<svg xmlns="http://www.w3.org/2000/svg" xmlns:xlink="http://www.w3.org/1999/xlink" viewBox="0,0,256,256" width="100px" height="100px" fill-rule="nonzero"><g fill-opacity="1" fill="white" fill-rule="nonzero" stroke="none" stroke-width="1" stroke-linecap="butt" stroke-linejoin="miter" stroke-miterlimit="10" stroke-dasharray="" stroke-dashoffset="0" font-family="none" font-weight="none" font-size="none" text-anchor="none" style="mix-blend-mode: normal"><g transform="scale(2.56,2.56)"><path d="M49,11c-4.4211,0 -9.53212,0.68036 -13.90039,3.14453c-4.36827,2.46417 -7.93415,6.78478 -9.07227,13.68359c-0.00089,0.0053 -0.00195,0.01373 -0.00195,0.01367c-0.0046,0.02725 -0.01027,0.05607 -0.01367,0.08789c-0.00825,0.07766 -0.01172,0.16455 -0.01172,0.27734c0,0.26858 0.07256,0.6818 0.34375,1.03711c0.27119,0.35531 0.69037,0.6003 1.17578,0.73438c0.05563,0.0153 0.11249,0.02575 0.16992,0.03125l10.20313,0.98633c0.03182,0.00283 0.06376,0.00413 0.0957,0.00391c0.55277,0 1.1083,-0.44271 1.30469,-0.81055c0.19639,-0.36783 0.24846,-0.68318 0.30859,-0.99414h-0.00195c0.78274,-4.01934 3.71528,-6.19531 8.20117,-6.19531c1.08951,0 2.72186,0.3381 3.97852,1.23633c1.25665,0.89823 2.2207,2.27451 2.2207,4.76367v6.00586c-6.3329,-0.00052 -13.16562,-0.01945 -18.79687,2.39258c-7.15157,3.03416 -11.20312,9.2703 -11.20312,17.20117c0,5.024 1.54292,9.1627 4.35938,12.01953c2.81646,2.85683 6.85972,4.38086 11.64063,4.38086c9.80716,0 15.54779,-5.27763 17.47852,-7.39258l0.57617,0.82031c1.36879,2.16244 2.40994,3.6879 5.23437,6.19727c0.08168,0.0726 0.17471,0.13132 0.27539,0.17383c0.2923,0.12299 0.59451,0.19208 0.9043,0.20117c0.43235,0.01381 0.92139,-0.06788 1.33008,-0.47656c3.66823,-3.30547 6.00454,-5.67527 7.51953,-6.91602c0.54529,-0.43681 0.75524,-1.24029 0.63867,-1.78516c-0.11657,-0.54487 -0.38651,-0.91935 -0.62891,-1.22266l-0.41406,-0.5332c0,-0.00065 0,-0.0013 0,-0.00195c-1.79549,-2.30803 -2.91406,-4.43437 -2.91406,-9.26367v-16.60156c0,-6.87345 -0.20257,-13.20076 -5.20117,-17.99805c-0.0013,-0.00131 -0.0026,-0.00261 -0.00391,-0.00391c-4.14301,-3.93581 -10.81616,-5.19727 -15.79492,-5.19727zM49,13c4.61924,0 10.92297,1.32628 14.41797,4.64648c4.38331,4.21019 4.58203,9.72038 4.58203,16.55273v16.60156c0,5.1647 1.39547,8.00026 3.33398,10.49219l0.42188,0.54297c0.00323,0.00393 0.00648,0.00784 0.00977,0.01172c0.10924,0.13669 0.15203,0.23931 0.18359,0.30859c-1.67429,1.38327 -3.90209,3.64514 -7.44141,6.83789c-0.0073,-0.00062 -0.02062,-0.00456 -0.0293,-0.00586c-2.58114,-2.31645 -3.42254,-3.55272 -4.76172,-5.66992c-0.00878,-0.01389 -0.01789,-0.02757 -0.02734,-0.04102l-1.30078,-1.85156c-0.18501,-0.26381 -0.48579,-0.42231 -0.80799,-0.4258c-0.3222,-0.00349 -0.62634,0.14848 -0.81701,0.40822c-0.00003,0.00005 -5.51951,7.5918 -16.76367,7.5918c-4.36109,0 -7.81876,-1.35274 -10.2168,-3.78516c-2.39804,-2.43242 -3.7832,-5.99623 -3.7832,-10.61523c0,-7.27113 3.46994,-12.59553 9.98438,-15.35937c0.0013,-0.00065 0.00261,-0.0013 0.00391,-0.00195c5.13195,-2.19936 11.82194,-2.23828 18.21094,-2.23828h0.80078c0.55226,-0.00006 0.99994,-0.44774 1,-1v-7c0,-3.04783 -1.35525,-5.17311 -3.05859,-6.39062c-1.70335,-1.21752 -3.67013,-1.60937 -5.14062,-1.60937c-5.1921,0 -9.21676,2.94979 -10.16406,7.81445c-0.01683,0.08703 -0.02019,0.07739 -0.03711,0.14258l-9.56836,-0.92383c1.07381,-6.3009 4.15916,-9.95315 8.05078,-12.14844c3.91873,-2.21058 8.70607,-2.88477 12.91797,-2.88477zM64.45703,30.99414c-0.27465,0.01062 -0.48924,0.24091 -0.48047,0.51563c0.0179,0.85101 0.02344,1.74256 0.02344,2.68945v16.60156c0,0.26677 0.01682,0.48902 0.02148,0.70898c0.00347,0.17865 0.10198,0.34188 0.25844,0.42818c0.15646,0.08631 0.34707,0.08259 0.50004,-0.00977c0.15297,-0.09235 0.24504,-0.2593 0.24152,-0.43795c-0.00534,-0.25204 -0.02148,-0.46622 -0.02148,-0.68945v-16.60156c0,-0.95111 -0.0053,-1.848 -0.02344,-2.70898c-0.00097,-0.13538 -0.05679,-0.26458 -0.1547,-0.35808c-0.09791,-0.0935 -0.22955,-0.1433 -0.36483,-0.13802zM54,41c-2.5435,0 -6.90603,-0.02819 -10.76367,1.43945c-3.85764,1.46765 -7.23633,4.69955 -7.23633,10.56055c0,1.41193 0.39751,3.3293 1.61719,4.99805c1.21967,1.66875 3.33865,3.00195 6.38281,3.00195c3.87688,0 7.01236,-1.39433 9.03906,-4.12109c2.0267,-2.72676 2.96094,-6.64357 2.96094,-11.67969v-3.19922c-0.00006,-0.55226 -0.44774,-0.99994 -1,-1zM54,43v2.19922c0,4.78489 -0.91786,8.26834 -2.56641,10.48633c-1.64855,2.21799 -4.01148,3.31445 -7.43359,3.31445c-2.49284,0 -3.87345,-0.95564 -4.76953,-2.18164c-0.89608,-1.226 -1.23047,-2.80929 -1.23047,-3.81836c0,-5.139 2.57666,-7.4071 5.94727,-8.68945c3.37061,-1.28235 7.50923,-1.31055 10.05273,-1.31055zM64.91211,54.99219c-0.15011,-0.00006 -0.29231,0.06732 -0.38732,0.18354c-0.09502,0.11621 -0.1328,0.26897 -0.10291,0.41607c0.21257,1.13133 0.4915,2.15836 0.83594,3.08203c0.05944,0.17109 0.20675,0.29666 0.3851,0.32826c0.17834,0.0316 0.35983,-0.0357 0.47445,-0.17594c0.11462,-0.14024 0.14444,-0.3315 0.07796,-0.49998c-0.32156,-0.86233 -0.58759,-1.8353 -0.79102,-2.91797c-0.04091,-0.24 -0.24873,-0.41565 -0.49219,-0.41602zM66.62695,59.99414c-0.17609,0.00107 -0.33864,0.09468 -0.42794,0.24646c-0.0893,0.15177 -0.09219,0.33933 -0.0076,0.49378c0.1899,0.35619 0.38824,0.69986 0.59375,1.0293c0.08853,0.16336 0.26033,0.26417 0.44612,0.26177c0.18579,-0.00241 0.35493,-0.10763 0.43919,-0.27323c0.08426,-0.1656 0.06976,-0.36427 -0.03766,-0.51588c-0.19249,-0.30856 -0.3785,-0.6329 -0.55859,-0.9707c-0.08607,-0.16749 -0.25895,-0.27243 -0.44727,-0.27148zM80,71c-2.56457,0 -4.49494,0.49807 -5.79492,1.01172c-0.64999,0.25683 -1.14277,0.516 -1.48047,0.7207c-0.16885,0.10235 -0.29876,0.19109 -0.39258,0.25977c-0.04691,0.03434 -0.08516,0.06324 -0.11719,0.08984c-0.01602,0.0133 -0.02966,0.0268 -0.04687,0.04297c-0.0086,0.0081 -0.01772,0.01666 -0.03125,0.03125c-0.0068,0.0073 -0.01461,0.01588 -0.02539,0.0293c-0.01078,0.01342 -0.04464,0.06591 -0.04492,0.06641c-0.08834,0.15467 -0.08773,0.34466 0.00159,0.49876c0.08932,0.1541 0.25388,0.24906 0.432,0.24928h6c1.22547,0 2.08608,0.09339 2.66602,0.25977c0.57994,0.16638 0.86614,0.37909 1.07227,0.66602c0.12629,0.17756 0.26172,0.29588 0.26172,1.07422c0,1.13368 -0.46277,3.51999 -2.46094,8.30664c-0.07841,0.18785 -0.03513,0.40449 0.10946,0.54779c0.14458,0.1433 0.3616,0.18464 0.54875,0.10455c0.0004,-0.00017 0.06993,-0.03627 0.08008,-0.04297c0.01015,-0.0067 0.01632,-0.0099 0.02148,-0.01367c0.01033,-0.0074 0.01712,-0.01314 0.02539,-0.01953c0.01654,-0.01277 0.03417,-0.02844 0.05664,-0.04687c0.04494,-0.03689 0.10702,-0.08801 0.18164,-0.1543c0.14923,-0.13257 0.35498,-0.32414 0.59961,-0.57617c0.48926,-0.50407 1.13161,-1.24663 1.77344,-2.21289c1.28366,-1.93253 2.56445,-4.77474 2.56445,-8.39258c0,-0.54933 -0.05518,-0.94702 -0.27539,-1.27734c-0.00065,-0.00065 -0.0013,-0.0013 -0.00195,-0.00195c-0.10779,-0.15935 -0.138,-0.15073 -0.20898,-0.20117c-0.07098,-0.05044 -0.15813,-0.10384 -0.26953,-0.16211c-0.2228,-0.11655 -0.53937,-0.24826 -0.97656,-0.375c-0.87434,-0.25344 -2.23016,-0.48242 -4.26758,-0.48242zM80,72c1.96258,0 3.22591,0.22039 3.98828,0.44141c0.38118,0.11051 0.6371,0.22222 0.79102,0.30273c0.0593,0.03102 0.09021,0.05133 0.11914,0.07031c0.02201,0.04432 0.10156,0.25805 0.10156,0.68555c0,3.38217 -1.1929,6.02787 -2.39648,7.83984c-0.28688,0.43189 -0.51977,0.65214 -0.79102,0.98633c1.1328,-3.08153 1.6875,-5.22604 1.6875,-6.32617c0,-0.95633 -0.32374,-1.48037 -0.44727,-1.6543c-0.00065,-0.00065 -0.0013,-0.0013 -0.00195,-0.00195c-0.34483,-0.48003 -0.87956,-0.83555 -1.60937,-1.04492c-0.72981,-0.20937 -1.66687,-0.29883 -2.94141,-0.29883h-4.04883c0.05164,-0.02136 0.06692,-0.03719 0.12109,-0.05859c1.19102,-0.4706 2.9923,-0.94141 5.42773,-0.94141zM10.70703,73c-0.22877,0 -0.43019,0.05985 -0.5918,0.2832v0.00195c-0.18061,0.24957 -0.11437,0.50563 -0.04883,0.6543c0.06574,0.14911 0.15639,0.26186 0.26563,0.37109c0.00636,0.00603 0.01287,0.01189 0.01953,0.01758c10.7311,9.65744 23.81282,14.67188 37.64844,14.67188c10.57845,0 22.24625,-3.73796 30.375,-9.73828c0.25072,-0.17909 0.61523,-0.60528 0.61523,-1.21875c0,-0.33884 -0.19041,-0.6159 -0.41211,-0.7832c-0.2217,-0.1673 -0.48741,-0.25586 -0.77344,-0.25586c-0.37838,0 -0.7259,0.12616 -1.08594,0.25781c-0.36004,0.13165 -0.70966,0.28104 -0.91992,0.36523c-8.3729,3.35174 -18.38017,5.37305 -27.79883,5.37305c-12.96091,0 -25.53784,-3.38396 -36.86719,-9.88867c-0.0102,-0.00623 -0.02063,-0.01209 -0.03125,-0.01758c-0.12498,-0.06054 -0.2592,-0.09375 -0.39453,-0.09375zM13.25586,75.26758c10.79617,5.6655 22.58349,8.73242 34.74414,8.73242c9.56134,0 19.67082,-2.0411 28.16992,-5.44336c0.23674,-0.0948 0.56961,-0.23932 0.89258,-0.35742c0.32296,-0.1181 0.66156,-0.19531 0.74219,-0.19531c0.05897,0 0.13487,0.02824 0.16992,0.05469c0.00928,0.00701 0.0087,0.0055 0.01172,0.00781c-0.00437,0.2745 -0.05602,0.28415 -0.19141,0.38086c-0.00461,0.00318 -0.00917,0.00643 -0.01367,0.00977c-7.91925,5.84564 -19.4397,9.54297 -29.78125,9.54297c-12.68121,0 -24.61667,-4.44484 -34.74414,-12.73242z"></path></g></g></svg>